<svg xmlns="http://www.w3.org/2000/svg" version="1.1" xmlns:xlink="http://www.w3.org/1999/xlink" xmlns:svgjs="http://svgjs.dev/svgjs" width="2000" height="373" viewBox="0 0 2000 373"><g transform="matrix(1,0,0,1,-1.2121212121212466,-1.745069897483745)"><svg viewBox="0 0 396 74" data-background-color="#ffffff" preserveAspectRatio="xMidYMid meet" height="373" width="2000" xmlns="http://www.w3.org/2000/svg" xmlns:xlink="http://www.w3.org/1999/xlink"><g id="tight-bounds" transform="matrix(1,0,0,1,0.2400000000000091,0.34620689655173464)"><svg viewBox="0 0 395.52 73.30758620689654" height="73.30758620689654" width="395.52"><g><svg viewBox="0 0 395.52 73.30758620689654" height="73.30758620689654" width="395.52"><g><svg viewBox="0 0 395.52 73.30758620689654" height="73.30758620689654" width="395.52"><g id="textblocktransform"><svg viewBox="0 0 395.52 73.30758620689654" height="73.30758620689654" width="395.52" id="textblock"><g><svg viewBox="0 0 395.52 73.30758620689654" height="73.30758620689654" width="395.52"><g transform="matrix(1,0,0,1,0,0)"><svg width="395.52" viewBox="3.25 -30.6 220.37 40.849999999999994" height="73.30758620689654" data-palette-color="#000000"><path d="M10.6 3.45L10.6 3.45Q9.4 3.45 9.4 2.5L9.4 2.5Q9.4 1.55 10.65 0.15L10.65 0.15Q11.8-1.1 14.4-2.53 17-3.95 20.35-5.05L20.35-5.05Q21.1-5.3 21.55-5.3L21.55-5.3Q22.15-5.3 22.15-5.05L22.15-5.05Q22.15-4.8 21.55-4.65L21.55-4.65Q19.45-4.1 17.4-3.08 15.35-2.05 13.75-0.9L13.75-0.9Q11.2 0.95 11.2 1.65L11.2 1.65Q11.2 2.05 12 2.05L12 2.05Q13.75 2.05 17.4-0.1L17.4-0.1Q19.8-1.5 21.95-3.28 24.1-5.05 25.43-6.8 26.75-8.55 26.75-9.95L26.75-9.95Q26.75-11.55 24.85-12.45L24.85-12.45Q23.05-11.5 21.1-10.63 19.15-9.75 17.4-9.05 15.65-8.35 14.38-8 13.1-7.65 12.65-7.75L12.65-7.75Q11.15-8.05 11.15-8.85L11.15-8.85Q11.15-9.55 12.13-10.45 13.1-11.35 14.33-12.1 15.55-12.85 16.3-13.1L16.3-13.1Q19.15-14.1 21.75-14.1L21.75-14.1Q23.55-14.1 25.1-13.55L25.1-13.55Q26.9-14.45 28.83-16.1 30.75-17.75 32.25-19.65 33.75-21.55 34.2-23.2L34.2-23.2Q34.45-24.3 34.45-24.8L34.45-24.8Q34.45-26.75 32.83-27.68 31.2-28.6 28.45-28.6L28.45-28.6Q24.3-28.6 18.75-26.85L18.75-26.85Q15.05-25.7 11.93-24.13 8.8-22.55 6.9-20.93 5-19.3 4.85-17.85L4.85-17.85Q4.8-17.4 4.5-17.15 4.2-16.9 3.85-16.9L3.85-16.9Q3.25-16.9 3.25-17.65L3.25-17.65Q3.25-20.2 7.7-23.05L7.7-23.05Q9.95-24.55 12.73-25.83 15.5-27.1 18.5-28.05 21.5-29 24.38-29.53 27.25-30.05 29.65-30.05L29.65-30.05Q32.9-30.05 34.77-29 36.65-27.95 36.65-25.7L36.65-25.7Q36.65-24.85 36.35-23.8L36.35-23.8Q35.8-21.75 34.2-19.75 32.6-17.75 30.45-16.07 28.3-14.4 26-13.2L26-13.2Q28.8-11.4 28.8-9.15L28.8-9.15Q28.8-6.4 25.3-3.5L25.3-3.5Q23.55-2.05 21.45-0.8 19.35 0.45 17.25 1.4 15.15 2.35 13.4 2.9 11.65 3.45 10.6 3.45ZM7.7 1.85L7.7 1.85Q6.4 1.6 5.88 0.95 5.35 0.3 5.35-0.95L5.35-0.95Q5.35-1.2 5.4-1.7 5.45-2.2 5.55-3L5.55-3Q5.8-4.75 6.88-7.1 7.95-9.45 9.53-12.05 11.1-14.65 12.93-17.15 14.75-19.65 16.55-21.7L16.55-21.7 16.25-21.65Q16-21.65 16-21.9L16-21.9Q16-22.1 16.35-22.75L16.35-22.75Q16.95-23.85 17.75-24.4L17.75-24.4Q18.15-24.7 18.35-24.85 18.55-25 18.6-25.05L18.6-25.05Q18.85-25.3 19.4-25.3L19.4-25.3Q20.05-25.3 20.63-24.95 21.2-24.6 21.2-24.25L21.2-24.25Q21.2-24.1 20.95-23.85L20.95-23.85Q18.75-21.9 15.75-18L15.75-18Q13.7-15.35 11.9-12.65 10.1-9.95 8.93-7.7 7.75-5.45 7.55-4.05L7.55-4.05 7.3-3.05Q7.25-2.95 7.23-2.7 7.2-2.45 7.1-2.05L7.1-2.05Q6.9-1.4 6.9-0.75L6.9-0.75Q6.9 0.35 7.75 0.6L7.75 0.6Q8.4 0.7 8.4 1.35L8.4 1.35Q8.4 1.95 7.7 1.85ZM14.2-9.15L14.2-9.15Q14.4-9.05 14.6-9.05L14.6-9.05Q15.4-9.05 17.55-9.9L17.55-9.9Q18.95-10.45 20.53-11.18 22.1-11.9 23.8-12.8L23.8-12.8Q23.4-12.9 22.88-12.95 22.35-13 21.8-13L21.8-13Q19.75-13 17.7-12.1L17.7-12.1 17.65-12.1Q16.85-11.75 16.18-11.4 15.5-11.05 14.95-10.8L14.95-10.8Q13.9-10.3 13.9-9.65L13.9-9.65Q13.9-9.4 14.2-9.15ZM38.8 1.45L38.8 1.45Q37.5 1.45 37.5-0.45L37.5-0.45Q37.5-2.4 38.85-6.2L38.85-6.2Q37.25-4.15 35.67-2.58 34.1-1 32.55 0L32.55 0Q31.45 0.8 30.55 0.8L30.55 0.8Q29.35 0.8 29.35-0.85L29.35-0.85Q29.35-1.75 29.65-2.5L29.65-2.5Q30.05-3.6 30.82-5.05 31.6-6.5 32.65-7.95 33.7-9.4 34.8-10.4L34.8-10.4Q35.2-10.65 35.3-10.65L35.3-10.65Q35.65-10.65 35.65-10.25L35.65-10.25Q35.65-10.1 35.5-9.85L35.5-9.85Q35.05-9.35 34.45-8.4 33.85-7.45 33.3-6.35 32.75-5.25 32.37-4.33 32-3.4 32-2.95L32-2.95Q32-2.05 32.8-2.05L32.8-2.05Q33.15-2.05 33.55-2.3L33.55-2.3Q35.4-3.45 36.95-5.08 38.5-6.7 39.85-9.5L39.85-9.5Q40.3-9.8 40.85-9.8L40.85-9.8Q41.4-9.8 41.77-9.45 42.15-9.1 42.15-8.5L42.15-8.5Q42.15-8.05 41.9-7.45L41.9-7.45Q41.85-7.25 41.72-7.05 41.6-6.85 41.45-6.6L41.45-6.6Q41.3-6.35 41.2-6.13 41.1-5.9 41-5.75L41-5.75Q40.05-4.05 39.52-2.9 39-1.75 39-0.9L39-0.9Q39 0.1 39.9 0.1L39.9 0.1Q40.7 0.1 41.5-0.5L41.5-0.5Q42-0.85 42.35-0.85L42.35-0.85Q42.9-0.85 42.12-0.18 41.35 0.5 40.25 1.05L40.25 1.05Q39.2 1.45 38.8 1.45ZM43.85 10.25L43.85 10.25Q42.75 10.25 42.05 9.25 41.35 8.25 41.35 6.9L41.35 6.9Q41.35 6.15 41.6 5.55L41.6 5.55Q42 4.7 42.25 4.7L42.25 4.7Q42.45 4.7 42.45 5L42.45 5Q42.45 5.25 42.3 5.65L42.3 5.65Q42.25 5.8 42.22 5.93 42.2 6.05 42.2 6.15L42.2 6.15Q42.2 7.05 42.72 8 43.25 8.95 44.05 8.95L44.05 8.95 44.45 8.85Q45.65 8.55 46.72 7.53 47.8 6.5 48.85 5L48.85 5Q50.25 2.95 51.35 0.58 52.45-1.8 53.25-4.15 54.05-6.5 54.45-8.4L54.45-8.4Q54.45-8.65 54.25-8.65L54.25-8.65Q53.9-8.65 53.15-7.85L53.15-7.85Q52.55-7.2 51.6-6.05 50.65-4.9 49.25-3.3L49.25-3.3 48.45-2.35Q47.65-1.4 46.82-0.98 46-0.55 45.3-0.55L45.3-0.55Q44.7-0.55 44.3-0.8L44.3-0.8Q43.8-1.15 43.8-2.05L43.8-2.05Q43.8-3.5 45.15-6.85L45.15-6.85 45.8-8.45Q46.3-9.6 46.67-10.55 47.05-11.5 47.4-12.3L47.4-12.3Q47.75-12.95 48.2-12.95L48.2-12.95Q48.75-12.95 48.4-12.3L48.4-12.3Q46.6-8.2 46.3-5.85L46.3-5.85Q46.25-5.75 46.25-5.58 46.25-5.4 46.25-5.2L46.25-5.2Q46.25-4.1 47.15-4.1L47.15-4.1Q47.75-4.1 48.85-4.8L48.85-4.8Q49.95-5.6 51.6-7.33 53.25-9.05 55.55-11.7L55.55-11.7Q55.95-12.1 56.3-12.5 56.65-12.9 56.95-13.25L56.95-13.25Q57.15-13.45 57.3-13.45L57.3-13.45Q57.45-13.45 57.45-13L57.45-13Q57.45-12.55 57.3-11.85L57.3-11.85Q57.15-11.2 57.15-11.05L57.15-11.05Q56.55-7.4 54.95-3.2L54.95-3.2Q53.3 0.95 50.77 4.5 48.25 8.05 45.15 9.85L45.15 9.85Q44.5 10.25 43.85 10.25ZM114.09 3.05L114.09 3.05Q112.59 3.05 111.67 1.63 110.74 0.2 110.94-1.75L110.94-1.75Q111.19-4.15 112.12-7.43 113.04-10.7 114.42-14.33 115.79-17.95 117.34-21.35L117.34-21.35Q116.69-20.45 115.77-19.18 114.84-17.9 113.69-16.25L113.69-16.25 112.79-14.95Q111.64-13.3 110.69-12 109.74-10.7 108.99-9.7L108.99-9.7Q108.89-9.6 108.56-9.18 108.24-8.75 107.69-8.05L107.69-8.05Q107.14-7.35 106.52-6.63 105.89-5.9 105.24-5.2L105.24-5.2Q102.24-1.85 101.19-1.85L101.19-1.85Q99.69-1.8 98.94-3.2 98.19-4.6 98.19-7.05L98.19-7.05Q98.19-8.05 98.34-9.25L98.34-9.25Q98.74-13.05 100.44-19.1L100.44-19.1 101.59-23.2Q101.84-24.05 101.94-24.75 102.04-25.45 102.09-26.05L102.09-26.05Q102.09-26.7 102.52-26.98 102.94-27.25 103.59-27.25L103.59-27.25Q104.29-27.25 104.87-26.95 105.44-26.65 105.39-26.3L105.39-26.3Q105.24-25.35 104.99-24.35 104.74-23.35 104.39-22.25L104.39-22.25Q104.29-21.85 104.02-21.2 103.74-20.55 103.34-19.7L103.34-19.7 102.74-18.35Q101.64-15.9 100.99-13.75 100.34-11.6 100.09-9.35L100.09-9.35Q100.04-9.15 100.04-8.83 100.04-8.5 100.04-8.1L100.04-8.1Q100.04-6.6 100.56-5.98 101.09-5.35 102.24-5.3L102.24-5.3Q102.74-5.3 103.56-5.85 104.39-6.4 105.29-7.2 106.19-8 107.02-8.88 107.84-9.75 108.34-10.4L108.34-10.4Q111.34-14.2 113.87-17.78 116.39-21.35 118.17-24.45 119.94-27.55 120.64-29.85L120.64-29.85Q120.89-30.6 121.84-30.6L121.84-30.6Q122.59-30.6 123.19-30.1 123.79-29.6 123.49-29L123.49-29 122.64-27.35Q121.29-24.7 120.06-22.33 118.84-19.95 117.89-17.75L117.89-17.75 117.84-17.8Q115.79-13.1 114.62-9.18 113.44-5.25 113.09-2.05L113.09-2.05Q112.99-0.6 113.47 0.5 113.94 1.6 114.89 1.6L114.89 1.6Q116.14 1.6 117.54-0.2L117.54-0.2Q118.04-0.85 118.44-0.7L118.44-0.7Q118.59-0.55 118.59-0.45L118.59-0.45Q118.59-0.2 118.39 0L118.39 0Q117.34 1.55 116.22 2.3 115.09 3.05 114.09 3.05ZM72.94 5.85L72.94 5.85Q69.64 5.85 67.69 3.73 65.74 1.6 65.74-2.2L65.74-2.2Q65.74-7.45 69.54-14.3L69.54-14.3Q72.14-19 75.31-21.28 78.49-23.55 81.39-23.55L81.39-23.55Q83.94-23.55 85.62-22 87.29-20.45 87.29-18.05L87.29-18.05Q87.29-16.25 86.27-14.3 85.24-12.35 83.14-10.4L83.14-10.4Q82.89-10.15 82.64-10.15L82.64-10.15Q82.39-10.15 82.39-10.45L82.39-10.45Q82.39-10.75 82.79-11.15L82.79-11.15Q84.29-12.7 85.04-14.28 85.79-15.85 85.79-17.25L85.79-17.25Q85.79-19.25 84.49-20.53 83.19-21.8 81.19-21.8L81.19-21.8Q78.79-21.8 76.17-19.83 73.54-17.85 71.24-13.7L71.24-13.7Q67.54-6.85 67.54-2.05L67.54-2.05Q67.54 1 69.02 2.7 70.49 4.4 73.09 4.4L73.09 4.4Q75.44 4.4 78.34 3 81.24 1.6 84.49-1.25L84.49-1.25Q88.99-5.25 92.74-10.7L92.74-10.7Q94.64-13.45 95.64-14.9 96.64-16.35 96.74-16.5L96.74-16.5Q97.54-17.6 98.44-18.88 99.34-20.15 100.34-21.65L100.34-21.65Q100.49-21.9 100.64-21.6L100.64-21.6Q100.89-21.2 100.69-20.95L100.69-20.95Q99.54-19.25 98.12-16.88 96.69-14.5 94.89-11.55L94.89-11.55 93.99-10.1 94.04-10.1Q90.04-3.9 85.09 0.25L85.09 0.25Q81.79 3.05 78.67 4.45 75.54 5.85 72.94 5.85ZM122.09 0.55L122.09 0.55Q121.04 0.55 120.24 0L120.24 0Q118.94-1 118.94-3L118.94-3Q118.94-5 120.34-7.25 121.74-9.5 124.59-11.4L124.59-11.4Q125.09-11.75 125.94-11.75L125.94-11.75Q127.04-11.75 127.91-11.15 128.79-10.55 128.59-9.6L128.59-9.6Q128.24-8.05 127.06-6.85 125.89-5.65 124.31-4.73 122.74-3.8 121.09-2.95L121.09-2.95Q121.04-2.8 121.01-2.65 120.99-2.5 120.99-2.35L120.99-2.35Q120.99-1.65 121.46-1.13 121.94-0.6 122.79-0.6L122.79-0.6Q123.44-0.6 123.89-0.8L123.89-0.8Q124.69-1.1 125.21-1.35 125.74-1.6 126.44-2.1 127.14-2.6 128.34-3.6L128.34-3.6Q128.89-4 128.99-4L128.99-4Q129.29-4 129.19-3.55L129.19-3.55Q128.69-2.75 127.46-1.8 126.24-0.85 124.76-0.15 123.29 0.55 122.09 0.55ZM121.39-4.3L121.39-4.3Q121.79-4.3 123.04-5.1 124.29-5.9 125.39-6.85L125.39-6.85Q127.29-8.6 127.29-9.55L127.29-9.55Q127.29-9.8 127.14-10L127.14-10Q126.99-10.25 126.69-10.25L126.69-10.25Q125.74-10.25 123.49-8L123.49-8Q121.94-6.5 121.39-4.3ZM145.78 1.35L145.78 1.35Q145.68 1.35 145.58 1.33 145.48 1.3 145.38 1.25L145.38 1.25Q144.68 0.9 144.48 0.25 144.28-0.4 144.38-1.4L144.38-1.4Q144.48-1.8 144.61-2.8 144.73-3.8 144.93-4.4L144.93-4.4 142.38-1.95 140.98-0.6Q139.53 0.85 138.58 0.85L138.58 0.85Q138.18 0.85 137.93 0.55L137.93 0.55Q137.48 0 137.48-0.8L137.48-0.8Q137.48-1.85 138.03-3.05 138.58-4.25 139.33-5.38 140.08-6.5 140.68-7.25L140.68-7.25Q142.18-9.1 143.61-10.15 145.03-11.2 146.58-11.2L146.58-11.2Q147.43-11.2 148.26-10.9 149.08-10.6 149.78-9.9L149.78-9.9 149.83-9.85Q149.83-9.7 149.58-9.55L149.58-9.55Q149.48-9.45 149.41-9.4 149.33-9.35 149.28-9.3L149.28-9.3Q148.68-8.7 147.93-7.3 147.18-5.9 146.63-4.38 146.08-2.85 146.08-1.75L146.08-1.75Q146.08-0.75 146.58-0.4L146.58-0.4Q146.83-0.25 147.13-0.25L147.13-0.25Q147.78-0.25 148.93-1.05L148.93-1.05Q148.98-1.1 149.16-1.23 149.33-1.35 149.68-1.6L149.68-1.6Q150.08-1.9 150.33-1.9L150.33-1.9Q150.58-1.9 150.58-1.7L150.58-1.7Q150.58-1.4 150.18-1L150.18-1Q149.88-0.75 149.51-0.45 149.13-0.15 148.63 0.15L148.63 0.15Q147.88 0.7 147.08 1.03 146.28 1.35 145.78 1.35ZM140.13-1.85L140.13-1.85Q141.18-1.85 144.03-4.95L144.03-4.95Q144.78-5.8 145.38-6.58 145.98-7.35 146.48-8.1L146.48-8.1Q147.38-9.55 147.08-10.1L147.08-10.1Q146.93-10.4 146.48-10.4L146.48-10.4Q145.93-10.4 144.98-9.83 144.03-9.25 143.06-8.35 142.08-7.45 141.28-6.55L141.28-6.55Q140.73-5.85 140.18-4.6 139.63-3.35 139.63-2.55L139.63-2.55Q139.63-1.85 140.13-1.85ZM166.33 3.2L166.33 3.2Q165.08 3.2 164.45 2.65 163.83 2.1 163.83 1.15L163.83 1.15Q163.83 0.25 164.38-0.8 164.93-1.85 165.93-2.75L165.93-2.75Q166.23-3 166.43-3.05L166.43-3.05Q166.58-3.05 166.68-2.95L166.68-2.95Q166.73-2.9 166.73-2.75L166.73-2.75Q166.73-2.4 166.28-1.95L166.28-1.95Q164.88-0.5 164.88 0.5L164.88 0.5Q164.88 1.05 165.38 1.5 165.88 1.95 166.53 1.9L166.53 1.9Q169.03 1.8 171.68 0.8 174.33-0.2 176.63-1.98 178.93-3.75 180.43-6.05L180.43-6.05Q181.53-7.65 181.53-8.85L181.53-8.85Q181.53-10.4 179.53-10.4L179.53-10.4Q179.18-10.4 178.73-10.33 178.28-10.25 177.73-10.15L177.73-10.15 175.23-9.6Q172.18-8.95 169.83-8.47 167.48-8 165.63-8L165.63-8Q163.48-8 162.3-8.68 161.13-9.35 161.13-11L161.13-11Q161.13-11.75 161.43-12.8L161.43-12.8Q162.43-16.1 166.78-19.8L166.78-19.8Q169.73-22.3 173.38-24.28 177.03-26.25 180.75-27.43 184.48-28.6 187.73-28.6L187.73-28.6Q190.23-28.6 191.7-27.5 193.18-26.4 193.18-24.5L193.18-24.5Q193.18-22.75 191.93-20.75L191.93-20.75Q191.58-20.25 191.33-20.25L191.33-20.25Q191.23-20.25 191.13-20.43 191.03-20.6 191.03-20.8L191.03-20.8Q191.03-20.85 191.05-20.98 191.08-21.1 191.13-21.3L191.13-21.3Q191.53-22.5 191.53-23.6L191.53-23.6Q191.53-25.3 190.35-26.15 189.18-27 186.98-26.8L186.98-26.8Q183.13-26.4 178.18-24.35L178.18-24.35Q174.83-22.95 171.85-21.05 168.88-19.15 166.75-17.03 164.63-14.9 163.83-12.75L163.83-12.75Q163.63-12.35 163.63-11.8L163.63-11.8Q163.63-9.8 167.58-9.8L167.58-9.8Q169.48-9.8 171.75-10.2 174.03-10.6 177.03-11.2L177.03-11.2 178.78-11.55Q179.68-11.7 180.53-11.7L180.53-11.7Q182.13-11.7 183.08-11.05 184.03-10.4 184.03-9.25L184.03-9.25Q184.03-8.2 183.13-6.75L183.13-6.75Q182.28-5.4 181.13-4.17 179.98-2.95 178.58-1.8L178.58-1.8Q175.73 0.5 172.48 1.85 169.23 3.2 166.33 3.2ZM186.73 0.85L186.73 0.85Q184.78 0.85 184.78-0.9L184.78-0.9Q184.78-1 184.8-1.25 184.83-1.5 184.88-1.85L184.88-1.85Q185.38-3.9 186.9-5.83 188.43-7.75 190.43-9.2L190.43-9.2Q191.18-9.8 192.83-9.8L192.83-9.8Q193.78-9.8 194.5-9.53 195.23-9.25 195.53-8.7L195.53-8.7Q195.83-8.2 195.83-7.55L195.83-7.55Q195.83-7.45 195.8-7.25 195.78-7.05 195.73-6.8L195.73-6.8Q195.83-6.85 196.05-6.85 196.28-6.85 196.63-6.9L196.63-6.9Q196.98-6.95 197.3-7 197.63-7.05 197.98-7.05L197.98-7.05 198.18-7.05Q198.73-7.05 198.3-6.63 197.88-6.2 197.18-6.1L197.18-6.1 195.48-5.9Q194.98-4.5 193.75-3.1 192.53-1.7 191.05-0.68 189.58 0.35 188.28 0.65L188.28 0.65Q187.53 0.85 186.73 0.85ZM193.13-6.6L193.13-6.6Q193.43-6.6 193.85-6.63 194.28-6.65 194.83-6.7L194.83-6.7Q194.88-6.8 194.88-7.15L194.88-7.15Q194.88-8.05 194.13-8.4L194.13-8.4Q193.73-8.65 193.13-8.65L193.13-8.65Q192.38-8.65 191.6-8.18 190.83-7.7 189.98-6.95L189.98-6.95Q191.03-6.6 193.13-6.6ZM188.23-0.9L188.23-0.9Q188.73-0.9 189.65-1.38 190.58-1.85 191.58-2.65 192.58-3.45 193.38-4.35L193.38-4.35Q193.63-4.6 193.88-4.98 194.13-5.35 194.43-5.75L194.43-5.75 193.23-5.6Q190.43-5.2 188.23-5.15L188.23-5.15Q187.13-3.35 186.88-2.15L186.88-2.15Q186.83-1.5 187.23-1.2 187.63-0.9 188.23-0.9ZM205.27 3.75L205.27 3.75Q204.52 3.75 204.17 3L204.17 3Q204.12 2.95 204.12 2.7L204.12 2.7Q204.12 2.45 204.37 1.55L204.37 1.55Q204.47 1.3 204.55 1.05 204.62 0.8 204.72 0.55L204.72 0.55Q204.82 0.3 204.92-0.03 205.02-0.35 205.12-0.7L205.12-0.7Q205.32-1.45 205.32-1.95L205.32-1.95Q205.32-2.65 204.87-2.65L204.87-2.65Q204.72-2.65 204.32-2.4L204.32-2.4Q203.67-1.9 202.95-1.45 202.22-1 201.42-0.6L201.42-0.6 199.82 0.25 198.77 0.85Q198.62 0.9 198.07 1.3L198.07 1.3Q197.57 1.6 197.02 1.6L197.02 1.6Q196.37 1.6 195.57 0.9L195.57 0.9Q194.97 0.3 194.97-0.35L194.97-0.35Q194.97-0.9 195.52-1.9L195.52-1.9Q195.92-2.55 196.87-3.5L196.87-3.5Q197.27-3.9 197.55-4.23 197.82-4.55 198.02-4.75L198.02-4.75Q200.12-7.55 204.52-9.7L204.52-9.7Q205.77-10.35 206.77-10.35L206.77-10.35Q207.87-10.35 208.52-9.45L208.52-9.45Q208.82-10.05 209.5-11.18 210.17-12.3 211-13.65 211.82-15 212.6-16.2 213.37-17.4 213.82-18.05L213.82-18.05Q215.17-19.9 216.02-20.85L216.02-20.85Q216.87-21.75 217.57-21.75L217.57-21.75Q217.82-21.75 218.22-21.5L218.22-21.5Q218.57-21.2 218.57-20.7L218.57-20.7Q218.57-19.95 217.92-18.95 217.27-17.95 216.12-16.5L216.12-16.5Q216.02-16.35 215.82-16.13 215.62-15.9 215.37-15.55L215.37-15.55Q214.82-14.75 214.22-13.88 213.62-13 212.92-12.15L212.92-12.15Q211.92-10.85 210.82-9.33 209.72-7.8 208.77-6.15L208.77-6.15Q207.92-4.65 207.32-3.08 206.72-1.5 206.32 0.1L206.32 0.1Q206.27 0.45 206.25 0.68 206.22 0.9 206.22 1L206.22 1 206.27 1.75Q206.32 1.9 206.32 2.45L206.32 2.45Q206.32 3.75 205.27 3.75ZM198.42-0.55L198.42-0.55Q198.97-0.55 199.42-0.75L199.42-0.75Q201.32-1.4 203.02-2.4 204.72-3.4 206.62-5.1L206.62-5.1Q206.87-5.8 207.22-6.6 207.57-7.4 207.97-8.35L207.97-8.35Q207.37-9.6 206.22-9.6L206.22-9.6Q205.47-9.6 204.62-9.1 203.77-8.6 202.72-7.75L202.72-7.75Q201.72-6.95 200.7-5.95 199.67-4.95 198.92-4.03 198.17-3.1 197.87-2.5L197.87-2.5Q197.57-2 197.57-1.35L197.57-1.35Q197.57-0.55 198.42-0.55ZM218.82 1.35L218.82 1.35Q218.72 1.35 218.62 1.33 218.52 1.3 218.42 1.25L218.42 1.25Q217.72 0.9 217.52 0.25 217.32-0.4 217.42-1.4L217.42-1.4Q217.52-1.8 217.65-2.8 217.77-3.8 217.97-4.4L217.97-4.4 215.42-1.95 214.02-0.6Q212.57 0.85 211.62 0.85L211.62 0.85Q211.22 0.85 210.97 0.55L210.97 0.55Q210.52 0 210.52-0.8L210.52-0.8Q210.52-1.85 211.07-3.05 211.62-4.25 212.37-5.38 213.12-6.5 213.72-7.25L213.72-7.25Q215.22-9.1 216.65-10.15 218.07-11.2 219.62-11.2L219.62-11.2Q220.47-11.2 221.3-10.9 222.12-10.6 222.82-9.9L222.82-9.9 222.87-9.85Q222.87-9.7 222.62-9.55L222.62-9.55Q222.52-9.45 222.45-9.4 222.37-9.35 222.32-9.3L222.32-9.3Q221.72-8.7 220.97-7.3 220.22-5.9 219.67-4.38 219.12-2.85 219.12-1.75L219.12-1.75Q219.12-0.75 219.62-0.4L219.62-0.4Q219.87-0.25 220.17-0.25L220.17-0.25Q220.82-0.25 221.97-1.05L221.97-1.05Q222.02-1.1 222.2-1.23 222.37-1.35 222.72-1.6L222.72-1.6Q223.12-1.9 223.37-1.9L223.37-1.9Q223.62-1.9 223.62-1.7L223.62-1.7Q223.62-1.4 223.22-1L223.22-1Q222.92-0.75 222.55-0.45 222.17-0.15 221.67 0.15L221.67 0.15Q220.92 0.7 220.12 1.03 219.32 1.35 218.82 1.35ZM213.17-1.85L213.17-1.85Q214.22-1.85 217.07-4.95L217.07-4.95Q217.82-5.8 218.42-6.58 219.02-7.35 219.52-8.1L219.52-8.1Q220.42-9.55 220.12-10.1L220.12-10.1Q219.97-10.4 219.52-10.4L219.52-10.4Q218.97-10.4 218.02-9.83 217.07-9.25 216.1-8.35 215.12-7.45 214.32-6.55L214.32-6.55Q213.77-5.85 213.22-4.6 212.67-3.35 212.67-2.55L212.67-2.55Q212.67-1.85 213.17-1.85Z" opacity="1" transform="matrix(1,0,0,1,0,0)" fill="#000000" class="wordmark-text-0" data-fill-palette-color="primary" id="text-0"></path></svg></g></svg></g></svg></g></svg></g></svg></g><defs></defs></svg><rect width="395.52" height="73.30758620689654" fill="none" stroke="none" visibility="hidden"></rect></g></svg></g></svg>